<svg xmlns="http://www.w3.org/2000/svg" data-name="Layer 1" width="299.31481" height="173.53648" viewBox="0 0 299.31481 173.53648" xmlns:xlink="http://www.w3.org/1999/xlink"><path d="M749.15855,485.46741c-1.01211-17.50985-5.28995-40.30276-7.01639-52.6523-2.9927-13.94468-6.686-27.73117-9.08621-41.801-1.08858-5.08766-2.01451-10.20934-3.15944-15.28438-.00892-.04461-.01861-.08846-.028-.13307-.00433-.01951-.00765-.03939-.01224-.0589l.00408.02907a14.78423,14.78423,0,0,0-10.28263-11.36242c-6.41193-1.28145-12.833.97449-19.21,1.6075,5.98848-.7889-7.47679.9694-9.78117,1.20369-6.89325.75423-13.81887,1.21847-20.744,1.55486-23.88864.46042-47.6006-3.25924-71.4051-4.67619-46.74247-3.06753-93.26774,4.93954-138.6774,15.31752q-2.68831.66482-5.3858,1.29394c5.3909.102,10.7818-.0283,16.17321.02664,23.58985.59247,47.18377-.45787,70.7703.2557,40.28441.5035,80.318,5.55036,120.54882,6.86941,26.67714-.93843,36.21153-4.24624,50.8151-5.47911.35793,1.18316.69725,2.46231,1.5727,6.20657-.82574.53346-1.64918,1.0701-2.4762,1.60088-16.38175,10.40768-32.43489,21.34793-49.30587,30.96428-12.76011,7.18375-25.49269,14.46055-38.63164,20.93557-8.89884,4.25885-12.82615,6.14054-20.70345,6.12869-4.609-.12275-22.30139-13.03494-36.65691-21.62606-10.45344-6.22175-21.60031-11.155-32.74285-15.9917A280.52462,280.52462,0,0,0,505.832,398.99885c-14.09548-4.47492-28.89993-7.35316-42.13729-13.712,12.30735,9.35938,26.814,14.71331,40.5809,21.44455,16.9263,8.89437,33.41971,18.65987,49.64952,28.76443,9.27869,6.00326,17.88945,12.969,27.15642,18.99078,6.84047,4.42928,14.199,9.38066,22.68379,9.07423,15.43441-.25226,28.6427-9.78538,41.09-17.92119,12.74354-8.6476,25.16357-17.77039,37.06684-27.54621,11.16064-9.33466,21.9093-19.17459,32.44968-29.205.052.22345.0979.41976.15373.66016,3.38862,17.05708,7.53772,33.93762,11.65368,50.82517,2.56085,10.89053,3.94184,22.02147,5.71417,33.05719,1.32465,9.31272,6.57253,37.4634-1.44218,48.4336-.1262.13167-.28553.2956-.48285.49649-.09127.05748-.19019.10184-.284.15525.04486-.01963.08667-.041.13231-.0594a.84841.84841,0,0,1-.32913.167c-.10274.05366-.19885.11943-.3049.1666a1.74491,1.74491,0,0,1,.23174-.143c-1.80929.49164-8.34308-.09382-13.67152-.14965-13.66055-.39171-27.317-.93766-40.91639-2.35116-24.25268-2.18022-48.62519-2.50832-72.85594-5.03526-25.5906-2.37869-51.27551-3.106-76.92729-4.47581-16.48271-1.58022-32.85069.61784-49.2559,1.91547-2.2669.10886-4.53712.22907-6.80657.14443-.43874-.07151-.84537-.11613-1.14237-.13741-.5267-.11039-1.0483-.23735-1.5643-.39095-.40076-10.10176,1.91127-38.45268-.00382-54.77809-2.236-27.38854-7.81765-54.43482-14.5072-81.051,1.64894,30.10885,3.72055,60.34567,1.79986,90.48714-.60293,12.28428-1.96378,24.51183-2.78366,36.78068-2.6827,20.26279,7.41179,24.41571,18.82889,23.8639,14.151-.8622,18.65248-2.36059,32.88435-3.35765,11.41608-.72721,22.83319.2789,34.23245.85863q42.74149,1.59464,85.36035,5.28447c14.41848,1.11879,28.89586,1.1569,43.30873,2.38085,16.885,1.61095,33.781,3.01068,50.74091,3.51011,5.6494.02817,11.37453,1.3829,16.94337.00407C750.70933,530.92335,750.38989,500.28207,749.15855,485.46741Z" transform="translate(-450.3426 -363.23176)"/><path d="M729.68441,522.51628c-.09586.04194-.1856.08477-.27.13117.02677-.00727.04844-.01568.07316-.02358Q729.587,522.57187,729.68441,522.51628Z" transform="translate(-450.3426 -363.23176)"/><path d="M494.91174,387.87026a351.8864,351.8864,0,0,1,106.29068,49.95532c24.20534-14.09343,48.41069-28.18686,74.246-41.19075a46.23746,46.23746,0,0,0-45.84084,9.67535c-11.7799,11.02141-30.55636,10.39017-45.6664,4.74s-28.397-15.42357-43.45771-21.20394S506.72965,383.09377,494.91174,387.87026Z" transform="translate(-450.3426 -363.23176)" fill="#e92063"/></svg>